<?xml version="1.0" standalone="no"?>
<!DOCTYPE svg PUBLIC "-//W3C//DTD SVG 1.1//EN" "http://www.w3.org/Graphics/SVG/1.1/DTD/svg11.dtd" >
<svg>
<metadata>
Created by FontForge 20110222 at Tue Apr  9 22:45:38 2013
 By Orthosie Webmaster
</metadata>
<defs>
<font id="Arson" horiz-adv-x="1296" >
  <font-face 
    font-family="Arson"
    font-weight="400"
    font-stretch="normal"
    units-per-em="2048"
    panose-1="2 11 5 0 0 0 0 0 0 0"
    ascent="1638"
    descent="-410"
    x-height="1071"
    cap-height="1614"
    bbox="-117 -442 1968 1698"
    underline-thickness="50"
    underline-position="-75"
    unicode-range="U+0020-007E"
  />
<missing-glyph horiz-adv-x="1536" 
d="M256 0v1280h1024v-1280h-1024zM1247 33v1214h-958v-1214h958z" />
    <glyph glyph-name=".notdef" horiz-adv-x="1536" 
d="M256 0v1280h1024v-1280h-1024zM1247 33v1214h-958v-1214h958z" />
    <glyph glyph-name=".null" horiz-adv-x="0" 
 />
    <glyph glyph-name="nonmarkingreturn" horiz-adv-x="0" 
 />
    <glyph glyph-name="grave" unicode="`" horiz-adv-x="424" 
d="M104 1403h97l125 -217h-99z" />
    <glyph glyph-name="one" unicode="1" horiz-adv-x="709" 
d="M68 1296l381 320v70h102v-1680h-102v1493l-248 -203h-133z" />
    <glyph glyph-name="two" unicode="2" horiz-adv-x="1116" 
d="M319 1298h-88q0 86 42.5 160.5t115.5 118t160 45.5q88 0 160.5 -42t115.5 -114.5t47 -160.5q0 -60 -15.5 -103.5t-53.5 -116.5l-522 -991h712v-98h-880l628 1178q35 66 35 145q-8 91 -68.5 151.5t-148.5 63.5q-91 0 -144.5 -51.5t-74.5 -109.5t-21 -75z" />
    <glyph glyph-name="three" unicode="3" 
d="M428 1296h-90q0 86 45.5 162t119.5 120t156 44q65 0 122.5 -24t101 -67t68 -99.5t26.5 -124.5q0 -170 -129 -267q85 -31 151 -82.5t112.5 -120.5t70.5 -149.5t24 -161.5q0 -148 -73.5 -273.5t-200.5 -199t-275 -73.5q-149 0 -275 74t-199.5 201t-73.5 275h92
q0 -123 62.5 -228.5t169.5 -166.5t229 -61q122 1 225.5 63t164 169.5t60.5 236.5q-3 93 -37.5 172t-96 139.5t-143 94.5t-171.5 34v88q95 1 157 61.5t68 153.5q0 68 -30.5 124.5t-82.5 89t-112 32.5q-97 -3 -150.5 -55t-68.5 -104t-17 -77z" />
    <glyph glyph-name="four" unicode="4" horiz-adv-x="1040" 
d="M205 1087h489v529h97v-531h104v-84h-102v-1001l-93 -2l-2 1003h-620l184 619h100z" />
    <glyph glyph-name="five" unicode="5" horiz-adv-x="1137" 
d="M236 1616h555v-78h-457v-448h139q116 0 218.5 -41t181 -116t123 -175.5t44.5 -218.5q0 -114 -43 -215t-119 -176t-173.5 -114.5t-210.5 -39.5q-229 0 -390 164v133q21 -27 53 -58.5t85.5 -66.5t119 -58.5t132.5 -23.5q126 2 230 59.5t164 162.5t60 241q0 100 -36.5 185.5
t-100.5 146.5t-149.5 94t-180.5 33h-245v610z" />
    <glyph glyph-name="six" unicode="6" 
d="M639 1616h94l-332 -594q69 35 124.5 48t138.5 13q111 -1 210.5 -46t171 -119t112 -172t40.5 -207q0 -145 -74.5 -272.5t-199 -202.5t-267.5 -76q-129 0 -257 69t-212 197.5t-84 292.5q0 127 68 248zM199 547q0 -123 60.5 -230t163.5 -169.5t230 -63.5q123 0 229 60.5
t168 165.5t62 231q0 123 -62 229.5t-168 168.5t-229 62q-120 -1 -224 -62t-166.5 -166.5t-63.5 -225.5z" />
    <glyph glyph-name="seven" unicode="7" horiz-adv-x="1067" 
d="M104 1620h869l-225 -535h135v-96h-170l-406 -989h-100l409 991h-405v96h444l185 439h-736v94z" />
    <glyph glyph-name="eight" unicode="8" 
d="M659 1081q64 0 117 31.5t83 86t30 116.5q0 94 -66.5 160.5t-160.5 66.5q-62 0 -116.5 -31.5t-86 -85t-31.5 -118.5q3 -94 70 -160t161 -66zM659 1628q86 0 160 -43t117 -117.5t43 -160.5t-33 -148.5t-106 -111.5q113 -42 194 -117.5t123.5 -178t42.5 -221.5
q0 -148 -73 -273.5t-198.5 -199.5t-269.5 -75q-150 0 -278 76.5t-202.5 205.5t-74.5 279q3 110 48 212.5t128 179.5t193 116q-137 92 -137 260q0 86 44 159t118.5 115.5t160.5 42.5zM651 987q-127 -1 -230.5 -62t-162.5 -164t-59 -226q0 -127 60 -231t166 -164t237 -60
q134 1 235.5 61t156 162.5t56.5 226.5q0 95 -34 179.5t-93.5 145.5t-146 96.5t-185.5 35.5z" />
    <glyph glyph-name="nine" unicode="9" horiz-adv-x="860" 
d="M207 1305q0 -96 67.5 -165t163.5 -69q100 3 160.5 71.5t60.5 164.5q0 61 -30.5 113.5t-83 83t-113.5 30.5q-62 0 -113.5 -31t-81.5 -84t-30 -114zM752 1307q0 -43 -12 -92.5t-27 -86.5l-387 -1128h-109l356 1016q-62 -30 -131 -33q-91 0 -167.5 43.5t-121 117
t-44.5 161.5q2 88 45.5 160t117.5 113.5t160 41.5q69 0 125.5 -22t99 -63t67.5 -98.5t28 -129.5z" />
    <glyph glyph-name="zero" unicode="0" horiz-adv-x="1866" 
d="M934 1645q172 0 324 -64.5t267 -179.5t179.5 -267t64.5 -325q0 -225 -111 -418.5t-302 -306.5t-416 -113q-227 0 -418 114t-302 309t-111 421q1 169 64 319t178.5 266t265.5 180.5t317 64.5zM199 819q0 -203 99.5 -375.5t269.5 -274t372 -101.5q148 0 284 56.5t239 159
t161 236.5t59 285q0 152 -58.5 290.5t-161.5 241.5t-240 161t-289 58q-150 0 -283.5 -57t-234 -157.5t-158.5 -235.5t-59 -287z" />
    <glyph glyph-name="hyphen" unicode="-" horiz-adv-x="623" 
d="M115 594h391l2 -92h-393v92z" />
    <glyph glyph-name="equal" unicode="=" horiz-adv-x="1389" 
d="M113 799h1173v-131h-1173v131zM113 362h1173v-133h-1173v133z" />
    <glyph glyph-name="q" unicode="q" horiz-adv-x="1331" 
d="M1182 -434h-92v665q-37 -55 -82.5 -98.5t-106.5 -79t-127.5 -54t-140.5 -19.5q-111 0 -213.5 43t-181 122t-121.5 178t-43 212q2 114 43.5 211.5t119 176t176 120.5t210.5 42q153 0 268 -64.5t199 -193.5v136h92v-1397zM168 535q0 -123 61.5 -230t166.5 -170t229 -63
q121 0 225.5 60t167 163.5t65.5 226.5q0 128 -61.5 236.5t-168 171.5t-230.5 63q-123 -1 -227 -63t-165 -166t-63 -229z" />
    <glyph glyph-name="w" unicode="w" horiz-adv-x="1561" 
d="M100 971h97l403 -862l113 247l-342 715h104l287 -606l280 606h95l-326 -719l113 -241l440 960h92l-520 -1137h-92l26 72l-108 232l-146 -306h-96l31 72z" />
    <glyph glyph-name="e" unicode="e" horiz-adv-x="1325" 
d="M203 541q0 -126 62.5 -234.5t168 -172t234.5 -64.5q93 0 183.5 39.5t161.5 113t101 164.5v-190q-76 -101 -199 -161.5t-251 -60.5q-113 1 -214 44.5t-177.5 121t-120 181t-43.5 215.5q0 151 74.5 279t202 203.5t278.5 76.5q127 0 243 -54.5t195.5 -154t109.5 -230.5h-991
q-18 -58 -18 -116zM1079 748q-31 64 -76.5 112.5t-101 80.5t-114.5 47.5t-123 15.5q-73 0 -153.5 -30t-149.5 -89t-107 -137h825z" />
    <glyph glyph-name="r" unicode="r" horiz-adv-x="604" 
d="M555 1176v-80q-77 0 -133 -19t-107 -67q-110 -108 -110 -275v-735h-92l-2 956h59q31 53 64.5 89t87.5 67q61 36 112 50t121 14z" />
    <glyph glyph-name="t" unicode="t" horiz-adv-x="750" 
d="M297 1290h90v-219h242v-76h-242v-626q0 -68 16 -118t60 -93q75 -72 176 -72v-92q-151 0 -254 110q-34 39 -53 77.5t-27 82.5t-8 98v633h-191v76h191v219z" />
    <glyph glyph-name="y" unicode="y" horiz-adv-x="1200" 
d="M109 1071h92v-571q0 -81 30.5 -159t87 -140t129.5 -96.5t156 -34.5q82 0 154 30t128 87t87 132t31 162v590h90v-1026q0 -74 -7.5 -131t-31 -113.5t-68.5 -105.5q-63 -69 -131.5 -101t-163.5 -36v77q56 0 116 25.5t103 73.5q93 104 93 237v217q-49 -68 -110.5 -115
t-133.5 -69t-160 -22q-135 0 -248 72.5t-178 193t-65 260.5v563z" />
    <glyph glyph-name="u" unicode="u" horiz-adv-x="1206" 
d="M1087 100h-92v76q-77 -103 -168.5 -147.5t-222.5 -44.5q-105 0 -196 38.5t-156.5 108.5t-103 170t-37.5 221v549h92v-553q0 -102 30 -184.5t84 -138t127 -83.5t156 -28q80 0 151.5 30.5t126.5 83.5t86 123t31 150v600h92v-971z" />
    <glyph glyph-name="i" unicode="i" horiz-adv-x="543" 
d="M229 1280h93v-84h-93v84zM229 1071h93v-1071h-93v1071z" />
    <glyph glyph-name="o" unicode="o" horiz-adv-x="1311" 
d="M659 993q-95 0 -178.5 -35.5t-148 -101.5t-99 -151.5t-34.5 -182.5q3 -123 65 -226.5t167 -163.5t228 -60t227.5 62.5t165 168.5t60.5 232q0 93 -35.5 177t-96 145.5t-146 98.5t-175.5 37zM659 1085q113 0 213.5 -42.5t175.5 -118t117.5 -177t42.5 -212.5t-43 -213.5
t-121.5 -179.5t-180.5 -119.5t-214 -42.5q-146 1 -271 75t-197 198.5t-75 272.5q0 152 73.5 281t200.5 203.5t279 74.5z" />
    <glyph glyph-name="p" unicode="p" horiz-adv-x="1317" 
d="M139 963h92v-127q82 127 197 188t268 61q111 0 211 -43t176.5 -119.5t119 -175.5t42.5 -212q0 -149 -75.5 -276.5t-205 -203t-278.5 -75.5q-98 1 -184.5 33.5t-155 88t-115.5 127.5v-663h-92v1397zM696 993q-123 0 -228.5 -61.5t-167.5 -169.5t-62 -240q1 -90 37.5 -173
t99.5 -145.5t146.5 -97t172.5 -34.5q93 0 177.5 37t146.5 100t97.5 149t35.5 177q0 92 -36.5 176.5t-97.5 146t-146.5 98.5t-174.5 37z" />
    <glyph glyph-name="bracketleft" unicode="[" horiz-adv-x="600" 
d="M541 1616v-111h-258l-2 -1829h272v-110h-436v2050h424z" />
    <glyph glyph-name="bracketright" unicode="]" horiz-adv-x="641" 
d="M86 1616v-109h266v-1831h-276v-110h436v2050h-426z" />
    <glyph glyph-name="backslash" unicode="\" horiz-adv-x="770" 
d="M694 -41h-92l-516 1657h92z" />
    <glyph glyph-name="a" unicode="a" horiz-adv-x="1339" 
d="M1112 965h92v-850h-92v118q-82 -125 -206 -189t-269 -64q-149 1 -277.5 78.5t-203 207.5t-74.5 281q1 110 45.5 211t122 176.5t180 118.5t215.5 43q103 -2 190 -33t156 -87t121 -136v125zM180 543q0 -127 63.5 -234.5t172 -171t235.5 -63.5q123 1 229.5 64t167 168
t62.5 231q0 94 -36 181.5t-98 152t-146.5 103t-178.5 38.5q-127 0 -235.5 -63.5t-172 -171t-63.5 -234.5z" />
    <glyph glyph-name="s" unicode="s" horiz-adv-x="979" 
d="M492 1010q-53 -2 -88 -38.5t-35 -88.5q0 -54 41.5 -89.5t101.5 -35.5q93 0 179 -51t138.5 -139t55.5 -187q0 -79 -30.5 -154t-83.5 -129t-123.5 -85t-149.5 -31q-74 0 -145 31.5t-126 86t-86.5 126.5t-31.5 149h88q0 -125 91.5 -215t221.5 -90q83 5 148.5 47t103 111
t37.5 149q-1 84 -43 152t-109.5 106.5t-144.5 40.5q-101 1 -157 59.5t-56 147.5q0 56 27.5 104.5t73.5 76.5t104 28t106 -29.5t76.5 -79.5t28.5 -109h-87q0 55 -36.5 95.5t-89.5 40.5z" />
    <glyph glyph-name="d" unicode="d" horiz-adv-x="1319" 
d="M1186 106h-92v127q-80 -126 -196.5 -187.5t-270.5 -61.5q-149 1 -274.5 75.5t-199.5 200.5t-75 275q0 113 43 213t120.5 177.5t179.5 121t216 43.5q145 -1 265.5 -70t191.5 -178v772h92v-1508zM627 78q94 0 179 36.5t147 99t98 150.5t36 185q-3 120 -65 224t-166.5 164
t-226.5 60q-124 0 -229 -63.5t-165.5 -169t-60.5 -229.5q0 -122 61 -227t165.5 -167.5t226.5 -62.5z" />
    <glyph glyph-name="f" unicode="f" horiz-adv-x="729" 
d="M629 1614v-82q-97 0 -176 -88q-58 -64 -58 -193v-180h199v-84h-199v-987h-92v987h-197v84h197v199q0 142 84 237q93 107 242 107zM303 -4v0v0z" />
    <glyph glyph-name="g" unicode="g" horiz-adv-x="1323" 
d="M164 543q0 -94 36.5 -180t103.5 -152t152.5 -102.5t178.5 -36.5q94 1 178 38.5t147 103t97.5 149t34.5 178.5q0 125 -63.5 231t-171 167.5t-230.5 61.5q-122 0 -229 -62t-170 -168t-64 -228zM1096 838v118h92v-909q0 -126 -25 -209t-100 -155q-62 -61 -127 -90t-154 -29
v78q65 0 128 34t102 78q49 55 66.5 116.5t17.5 164.5v192q-73 -118 -190.5 -182.5t-270.5 -67.5q-112 0 -215 44t-181 121t-122.5 179.5t-44.5 215.5q0 149 75.5 277.5t204 204t277.5 75.5q98 0 189 -34t161.5 -92t116.5 -130z" />
    <glyph glyph-name="h" unicode="h" horiz-adv-x="1192" 
d="M109 1614h90v-723q77 103 172 151t223 48q107 0 197.5 -37t157.5 -107.5t104 -170.5t37 -224v-551h-93v565q0 137 -51 236t-142 149.5t-206 50.5q-107 0 -198.5 -52t-146 -141.5t-54.5 -193.5v-616h-90v1616z" />
    <glyph glyph-name="j" unicode="j" horiz-adv-x="532" 
d="M223 1280h90v-82h-90v82zM-117 -338q66 0 127 22.5t109 69.5q44 42 66 83t30 91t8 131v1012h90v-960q0 -101 -7.5 -172t-36.5 -136t-87 -118q-45 -41 -88.5 -66t-91.5 -36.5t-119 -14.5v94z" />
    <glyph glyph-name="k" unicode="k" horiz-adv-x="1067" 
d="M127 1614h92v-862l643 319h160l-645 -328h82q137 0 237 -24.5t176 -104.5q117 -119 117 -280v-334h-90v315q0 92 -22 146.5t-76 105.5q-61 61 -130 81t-155 20h-74h-223v-668h-92v1614z" />
    <glyph glyph-name="l" unicode="l" horiz-adv-x="543" 
d="M233 1614h91v-1614h-91v1614z" />
    <glyph glyph-name="semicolon" unicode=";" horiz-adv-x="297" 
d="M109 350h94v-96h-94v96zM109 94h94v-205h-94v205z" />
    <glyph glyph-name="quotesingle" unicode="'" horiz-adv-x="291" 
d="M109 1616h94v-426h-94v426z" />
    <glyph glyph-name="z" unicode="z" horiz-adv-x="1145" 
d="M233 1071h695l-652 -977h756v-94h-930l674 989h-543v82z" />
    <glyph glyph-name="x" unicode="x" horiz-adv-x="1087" 
d="M262 1071h98l183 -319l186 319h96l-231 -403l383 -668h-103l-331 582l-332 -582h-98l379 668z" />
    <glyph glyph-name="c" unicode="c" horiz-adv-x="1055" 
d="M659 1006q-126 0 -231 -63.5t-166 -171t-61 -232.5q2 -100 35.5 -182t97 -145t146 -97t173.5 -35q74 0 128.5 15t117.5 52l43 -75q-72 -44 -138 -63t-151 -19q-147 0 -272 74t-198.5 201t-73.5 274q0 108 42 208.5t119 177.5t176 118.5t211 41.5q84 0 145.5 -17
t133.5 -60l-51 -70q-55 36 -106.5 51.5t-119.5 16.5z" />
    <glyph glyph-name="v" unicode="v" horiz-adv-x="1255" 
d="M104 969h103l401 -858l439 960h96l-520 -1141h-97l31 74z" />
    <glyph glyph-name="b" unicode="b" horiz-adv-x="1311" 
d="M121 1614h92v-770q71 110 192 179t265 69q149 0 278 -74.5t205 -203t76 -277.5q0 -109 -43.5 -211t-120 -178t-176 -118.5t-209.5 -43.5q-101 0 -187.5 27t-155.5 82.5t-124 140.5v-127h-92v1505zM1133 539q0 92 -35.5 176.5t-97.5 148.5t-147 100.5t-175 36.5
q-123 0 -227 -60.5t-166.5 -164t-65.5 -225.5q0 -97 35 -183.5t99 -151t148.5 -100.5t178.5 -36q122 0 226.5 62.5t165.5 168t61 228.5z" />
    <glyph glyph-name="n" unicode="n" horiz-adv-x="1198" 
d="M113 975h92v-78q74 102 168.5 148.5t222.5 46.5q107 0 196.5 -36t156.5 -104.5t105 -168t38 -222.5v-561h-93v557q0 104 -29.5 186t-83.5 137.5t-127 84t-161 28.5q-76 0 -147.5 -29.5t-127 -84t-87 -125.5t-31.5 -150v-604h-92v975z" />
    <glyph glyph-name="m" unicode="m" horiz-adv-x="2075" 
d="M1487 1085q100 -1 187.5 -41.5t154 -111.5t103 -161t36.5 -191v-580h-92v592q0 106 -52 197.5t-140 146t-193 57.5q-115 0 -206.5 -45.5t-145.5 -143t-54 -245.5v-559h-90v557q0 137 -50.5 236t-140.5 149.5t-204 50.5q-106 0 -196.5 -52.5t-144.5 -142.5t-54 -194v-604
h-92v971h92v-80q72 99 178.5 147.5t216.5 48.5q172 -3 283 -91t157 -185q66 137 180 205.5t267 68.5z" />
    <glyph glyph-name="comma" unicode="," horiz-adv-x="305" 
d="M109 94h94v-205h-94v205z" />
    <glyph glyph-name="period" unicode="." horiz-adv-x="299" 
d="M104 94h97v-96h-97v96z" />
    <glyph glyph-name="slash" unicode="/" horiz-adv-x="770" 
d="M600 1616h94l-516 -1657h-92z" />
    <glyph glyph-name="space" unicode=" " horiz-adv-x="449" 
 />
    <glyph glyph-name="asciitilde" unicode="~" horiz-adv-x="1040" 
d="M190 1182h-84q11 95 74 156t158 67q81 0 127 -27l162 -90q42 -24 82 -24q49 0 97 40.5t52 96.5h90q-12 -96 -79 -155t-162 -62q-73 0 -123 28l-131 78q-29 19 -50 28t-49 9q-145 0 -164 -145z" />
    <glyph glyph-name="exclam" unicode="!" horiz-adv-x="313" 
d="M109 102h98v-104h-98v104zM109 205v1405h98v-1405h-98z" />
    <glyph glyph-name="at" unicode="@" horiz-adv-x="1812" 
d="M659 868q-59 -130 -59 -243q0 -155 117 -203q31 -14 67 -14q89 0 163.5 86t127.5 211q72 158 72 256q0 109 -84 165q-43 29 -92 29q-88 0 -174.5 -86.5t-137.5 -200.5zM1262 1239h159l-250 -739q-6 -23 -6 -64q6 -55 60 -55q55 0 130 53.5t111 120.5q117 201 117 379
q0 26 -8 84q-19 112 -75 202t-138.5 153.5t-185 98t-215.5 37.5q-149 0 -279 -58.5t-226 -164t-148 -239.5t-52 -281q3 -145 54.5 -276t145 -232t218 -158t266.5 -57q198 2 344 73t256 230h135q-81 -142 -189 -234.5t-244.5 -138t-301.5 -45.5q-170 1 -320 68.5t-263.5 186
t-176.5 274.5t-63 325q2 173 64.5 324.5t176.5 270t267 185t329 66.5q192 -8 360 -86t274.5 -218.5t127.5 -326.5q4 -56 4 -79q0 -64 -10.5 -119.5t-29.5 -103t-41 -88.5t-50 -91q-33 -62 -96.5 -122.5t-141 -99t-149.5 -38.5q-85 0 -143 55q-31 26 -53 66
q-112 -109 -248 -109q-73 0 -154 35q-174 71 -174 301q0 147 78 322q70 150 201.5 256t265.5 106q81 0 147 -41q38 -23 64 -48t49 -58z" />
    <glyph glyph-name="numbersign" unicode="#" horiz-adv-x="1286" 
d="M477 1614h133l-67 -481h299l67 481h133l-65 -479h223v-140h-246l-41 -309h228v-133h-250l-70 -508h-133l68 510h-305l-74 -508h-131l73 510h-245v131h264l51 313h-254v132h268zM823 1001h-301l-49 -315h305z" />
    <glyph glyph-name="dollar" unicode="$" horiz-adv-x="1290" 
d="M862 1307q0 102 -55 159q-48 57 -123 68v-455q41 -3 115 -25t161 -80t150.5 -166t67.5 -267q0 -147 -65.5 -267t-176.5 -194.5t-244 -89.5v-78h-108v78q-105 10 -185 48.5t-151 108.5q-81 84 -119.5 190t-38.5 204h90q0 -180 117 -310q41 -47 83.5 -77t90 -47t111.5 -23
v909q-15 0 -80.5 31t-124.5 101.5t-62 181.5q0 116 73.5 206t186.5 111v74h109v-76q21 0 73.5 -17.5t98.5 -64.5q100 -104 100 -235zM403 1315q0 -76 48 -141.5t129 -86.5v447q-52 -13 -91.5 -49t-61.5 -81.5t-24 -88.5zM692 82q114 13 206.5 79t144 167.5t51.5 216.5
q0 82 -29.5 158.5t-83.5 136.5t-128.5 99t-160.5 48v-905z" />
    <glyph glyph-name="percent" unicode="%" horiz-adv-x="1325" 
d="M203 1178q2 -76 57.5 -128.5t132.5 -52.5q49 1 90.5 26t65.5 65.5t26 91.5q0 50 -24.5 93.5t-66.5 69.5t-91 27q-51 0 -94.5 -27t-69.5 -70.5t-26 -94.5zM393 1458q75 -1 139 -40.5t101 -105.5t37 -138q-1 -74 -40.5 -134.5t-105 -95.5t-137.5 -35q-114 0 -196 80.5
t-82 192.5q0 72 38.5 135t104.5 102t141 39zM752 379q1 -47 28.5 -90t70 -66.5t91.5 -23.5q50 2 92 26.5t66 65t24 88.5q0 49 -24 93t-66.5 70t-91.5 27q-51 0 -94.5 -26.5t-69.5 -70t-26 -93.5zM942 657q75 -1 139.5 -40.5t102 -104t37.5 -137.5q-1 -72 -40.5 -133.5
t-104.5 -97t-138 -35.5q-77 2 -140.5 38t-101.5 98t-39 136q0 72 39 135.5t104.5 102t141.5 38.5zM864 1620h88l-471 -1624h-94z" />
    <glyph glyph-name="asciicircum" unicode="^" horiz-adv-x="1096" 
d="M465 1403h158l372 -215l-151 -2l-281 160h-41l-278 -158h-154z" />
    <glyph glyph-name="ampersand" unicode="&#x26;" horiz-adv-x="1352" 
d="M879 1300q-3 94 -68.5 162t-157.5 68q-61 0 -113 -30t-83.5 -82.5t-32.5 -112.5q0 -143 145 -224l365 -204q-19 28 -23 32q-8 9 -16 13.5t-31 15.5h152q39 -37 78 -90q27 -40 51 -90l108 -62v-106l-65 31q8 -44 8 -91q0 -146 -73 -273t-199 -202t-271 -75q-146 0 -272 74
t-199 201t-73 277q0 175 97.5 313.5t256.5 198.5q-133 95 -133 252q0 86 43.5 160.5t118.5 119t161 44.5q81 0 156 -44t118.5 -114.5t45.5 -150.5q0 -79 -35 -146h-96q37 59 37 135zM1075 688l-497 289q-23 -1 -72.5 -13.5t-118 -55t-125.5 -135.5t-69 -236q0 -119 63 -226
t169.5 -173t229.5 -66q122 1 226 64t164.5 168t60.5 228q-2 49 -9 84t-22 72z" />
    <glyph glyph-name="asterisk" unicode="*" horiz-adv-x="944" 
d="M422 1616h94v-316l275 160l43 -76l-273 -159l273 -160l-43 -72l-271 158v-315h-96v313l-270 -158l-48 78l275 158l-266 153l43 78l264 -158v316z" />
    <glyph glyph-name="parenleft" unicode="(" horiz-adv-x="465" 
d="M203 752q0 -101 8.5 -201.5t25.5 -204.5t44 -208.5t71 -229.5h-100q-53 150 -85 296t-45 286t-13 268q2 162 15 294.5t45.5 269.5t88.5 294h100q-87 -235 -121 -431.5t-34 -432.5z" />
    <glyph glyph-name="parenright" unicode=")" horiz-adv-x="465" 
d="M109 1616h100q45 -124 73 -229t44.5 -203.5t24.5 -204t9 -221.5q0 -211 -33 -421t-110 -429h-100q41 111 70.5 223.5t46.5 217t24.5 203.5t7.5 200q0 125 -8 227.5t-26 201.5t-47.5 205.5t-75.5 229.5z" />
    <glyph glyph-name="underscore" unicode="_" horiz-adv-x="1417" 
d="M10 -307h1458v-31h-1458v31z" />
    <glyph glyph-name="plus" unicode="+" horiz-adv-x="1362" 
d="M614 1165h138v-514h510v-143h-514v-514h-134v514h-510l2 145h508v512z" />
    <glyph glyph-name="Q" unicode="Q" horiz-adv-x="1866" 
d="M197 815q0 -146 52.5 -277.5t149 -234t222 -162.5t272.5 -69v174h94v-174q194 17 348.5 118t243 263.5t88.5 353.5q0 199 -99.5 370t-272.5 271t-377 100q-148 -3 -280 -60.5t-231.5 -160t-154 -233.5t-55.5 -279zM928 1626q166 0 318 -63t267 -176.5t179.5 -261.5
t64.5 -318q0 -215 -101 -399t-278 -297.5t-391 -126.5v-109h-94v113q-164 6 -307 72t-253 181t-169.5 264t-59.5 312q3 167 68 314.5t179 259.5t263 173.5t314 61.5z" />
    <glyph glyph-name="W" unicode="W" horiz-adv-x="2025" 
d="M109 1511h92l633 -1392l129 289l-539 1206h92l494 -1094l473 1094h92l-518 -1204l139 -297l643 1501h88l-715 -1684h-94l27 72l-135 301l-160 -373h-92l26 74z" />
    <glyph glyph-name="E" unicode="E" horiz-adv-x="1282" 
d="M133 1614h1057v-78h-961v-459h961v-80h-961v-913h961v-86h-1057v1616z" />
    <glyph glyph-name="R" unicode="R" horiz-adv-x="1268" 
d="M121 1614h403q94 0 164 -38t107.5 -105.5t40.5 -151.5q0 -83 -22 -138t-89 -110q96 -10 179.5 -51.5t158.5 -136.5q68 -85 97.5 -174t29.5 -215v-494h-96v473q0 107 -24.5 203.5t-92.5 169.5q-74 79 -155.5 114t-196.5 35h-156v82h41q73 0 129.5 31t86.5 84.5t30 118.5
q0 47 -18.5 91.5t-49.5 74t-76.5 46.5t-101.5 17h-295v-1540h-94v1614z" />
    <glyph glyph-name="T" unicode="T" horiz-adv-x="1337" 
d="M1225 1614v-76h-504v-1538h-94v1538h-521v76h1119z" />
    <glyph glyph-name="Y" unicode="Y" horiz-adv-x="1034" 
d="M102 1616h107l303 -533l303 533h105l-363 -625v-991h-94v993z" />
    <glyph glyph-name="U" unicode="U" horiz-adv-x="1290" 
d="M109 1614h94v-1088q0 -86 34.5 -170.5t97 -150t145 -102.5t173.5 -37q89 1 167.5 35.5t141 96.5t96.5 139t34 161v1116h96v-1094q0 -147 -72.5 -271.5t-196 -196.5t-268.5 -72q-147 0 -271 74t-197.5 201.5t-73.5 274.5v1084z" />
    <glyph glyph-name="I" unicode="I" horiz-adv-x="526" 
d="M215 1614h98v-1614h-98v1614z" />
    <glyph glyph-name="O" unicode="O" horiz-adv-x="1851" 
d="M938 1561q-202 0 -372.5 -97.5t-271 -266.5t-104.5 -368q0 -154 58 -292t162.5 -244.5t240 -164.5t291.5 -58q149 3 282 62.5t232.5 163t155 240.5t55.5 287q-1 146 -57.5 279.5t-156 236.5t-232.5 162t-283 60zM1751 823q0 -173 -62 -326t-174 -268.5t-260.5 -181.5
t-318.5 -67q-227 0 -418.5 113t-302.5 305t-111 417q3 223 114.5 412.5t302 300t415.5 110.5q168 -1 314 -64t257 -174.5t176 -261t68 -315.5z" />
    <glyph glyph-name="P" unicode="P" horiz-adv-x="831" 
d="M133 1614h283q94 0 173 -41.5t124 -115t45 -161.5q-2 -85 -41.5 -156.5t-108 -114t-149.5 -42.5h-232v-983h-94v1614zM227 1077h201q62 0 115 27t84.5 78t31.5 118q0 95 -70.5 159.5t-168.5 64.5h-193v-447z" />
    <glyph glyph-name="braceleft" unicode="{" horiz-adv-x="647" 
d="M416 1509q-30 -42 -37.5 -83.5t-7.5 -104.5v-453q0 -130 -58 -198q-54 -59 -129 -78q45 -8 74.5 -24t54.5 -50q26 -30 38 -63.5t15 -66t3 -87.5v-483q0 -93 41 -148q35 -48 69 -70.5t86 -31.5l-63 -2q-87 0 -163.5 45.5t-92.5 101.5q-21 102 -21 135v500q0 124 -51 178
q-55 58 -135 64q94 15 149 88q28 40 34.5 81t6.5 113v435q0 82 15.5 139t62.5 102q40 38 82 49t111 11l61 4q-95 -27 -145 -103z" />
    <glyph glyph-name="braceright" unicode="}" horiz-adv-x="600" 
d="M68 1612l61 -2q72 -2 113 -12.5t80 -47.5q47 -43 63 -99t16 -142v-437v-45q0 -93 41 -147q59 -77 148 -88q-81 -6 -133 -66q-54 -54 -54 -176v-502q0 -55 -20 -133q-16 -57 -91.5 -103t-164.5 -46l-64 2q53 10 90 34.5t68 67.5q41 57 41 150v483q0 76 9 125t44 92
q47 57 129 72q-74 19 -127 80q-57 68 -57 196v455q0 69 -8 108t-37 78q-29 44 -63.5 68t-83.5 35z" />
    <glyph glyph-name="bar" unicode="|" horiz-adv-x="283" 
d="M111 1616h65v-2052h-67z" />
    <glyph glyph-name="A" unicode="A" horiz-adv-x="1751" 
d="M768 1661h96l756 -1665h-109l-440 991h-436l-438 -989h-103l703 1593zM846 1483l-172 -414h358z" />
    <glyph glyph-name="S" unicode="S" horiz-adv-x="1290" 
d="M670 1542q-97 0 -166.5 -69.5t-69.5 -165.5q0 -62 31.5 -113.5t79 -81.5t94.5 -35l86 -12q123 -18 231.5 -94.5t172 -194.5t63.5 -252q0 -145 -72.5 -270.5t-197 -199.5t-269.5 -74q-146 0 -271.5 72.5t-199 198.5t-73.5 279h84q0 -118 61.5 -223.5t167 -171t227.5 -65.5
q92 1 174.5 37t144.5 99.5t97 146.5t35 173q0 113 -50.5 209.5t-138.5 158.5t-198 77l-107 20q-61 11 -123.5 53.5t-102.5 112t-40 154.5q1 88 44.5 161t118 115.5t161.5 42.5q69 0 130 -26t103.5 -69t67 -101.5t24.5 -126.5h-90q0 62 -30.5 116.5t-83.5 86.5t-115 32z" />
    <glyph glyph-name="D" unicode="D" horiz-adv-x="1464" 
d="M131 1614h438q175 0 326.5 -63t263 -174t173 -258t61.5 -314q0 -162 -63 -310.5t-172.5 -259.5t-257.5 -174t-312 -63h-457v1616zM223 1530v-1442h357q152 0 283 55.5t229.5 155t153 232t54.5 276.5q0 146 -55.5 277t-154 231.5t-228.5 157.5t-270 57h-369z" />
    <glyph glyph-name="F" unicode="F" horiz-adv-x="1180" 
d="M133 -2v1616h950v-76h-854v-459h854v-84h-854v-997h-96z" />
    <glyph glyph-name="G" unicode="G" horiz-adv-x="1872" 
d="M905 1556q-150 0 -284 -58.5t-236.5 -162.5t-160.5 -241.5t-58 -284.5q1 -150 59.5 -286t160 -236t236.5 -156.5t285 -56.5q156 1 291 62t235 167t153.5 239t53.5 273h93v-702h-95v319q-57 -114 -138.5 -198.5t-177.5 -139t-200 -83t-207 -31.5q-168 0 -323.5 65.5
t-270.5 179.5t-180 263t-67 317q0 170 64 321.5t178.5 266.5t265.5 180t321 65q82 0 149 -11.5t132.5 -36.5t134.5 -66l-45 -68q-62 37 -118.5 58.5t-116 30.5t-134.5 11z" />
    <glyph glyph-name="H" unicode="H" horiz-adv-x="1386" 
d="M113 1614h94v-543h985v543h96v-1614h-96v983h-985v-983h-94v1614z" />
    <glyph glyph-name="J" unicode="J" horiz-adv-x="375" 
d="M8 -117q70 7 105 64q14 26 14 96v1571h96v-1565q0 -110 -37 -162q-31 -39 -76.5 -66t-101.5 -28v90z" />
    <glyph glyph-name="K" unicode="K" horiz-adv-x="1159" 
d="M123 1614h94v-543l715 549h123l-711 -549h166q127 0 223 -37.5t182 -124.5q88 -88 124 -192.5t36 -235.5v-481h-96v500q0 115 -29.5 197t-105.5 157q-75 73 -158 103t-197 30h-272v-987h-94v1614z" />
    <glyph glyph-name="L" unicode="L" horiz-adv-x="797" 
d="M127 0l2 1614h96v-1520h486v-94h-584z" />
    <glyph glyph-name="colon" unicode=":" horiz-adv-x="297" 
d="M109 94h96v-98h-96v98zM109 342h94v-96h-94v96z" />
    <glyph glyph-name="quotedbl" unicode="&#x22;" horiz-adv-x="526" 
d="M338 1616h94v-428h-94v428zM109 1616h96v-428h-96v428z" />
    <glyph glyph-name="Z" unicode="Z" horiz-adv-x="1423" 
d="M297 1614h836l-873 -1530h1036v-84h-1187l884 1534h-696v80z" />
    <glyph glyph-name="X" unicode="X" horiz-adv-x="1442" 
d="M328 1614h100l301 -529l305 529h94l-348 -617l576 -997h-101l-524 911l-518 -911h-102l571 997z" />
    <glyph glyph-name="C" unicode="C" horiz-adv-x="1499" 
d="M936 1546q-147 0 -281 -56.5t-236.5 -159t-159.5 -234t-58 -279.5q0 -151 55.5 -286.5t157 -238.5t239.5 -160.5t295 -57.5q112 3 194 26.5t175 81.5l49 -73q-75 -47 -140 -73.5t-130.5 -38t-157.5 -13.5q-168 0 -319.5 65t-266 180.5t-179 269.5t-64.5 322
q4 224 118.5 410t303.5 292.5t401 106.5q115 -2 216 -27.5t204 -86.5l-45 -64q-157 86 -371 94z" />
    <glyph glyph-name="V" unicode="V" horiz-adv-x="1657" 
d="M850 -70h-92l26 74l-675 1503h92l633 -1388l649 1495h92z" />
    <glyph glyph-name="B" unicode="B" horiz-adv-x="1157" 
d="M106 1614h326q103 0 175.5 -46t108.5 -117t38 -144q0 -147 -103 -244q92 -19 172 -67.5t135 -118t84 -154t29 -184.5q0 -150 -73.5 -275t-196 -195.5t-262.5 -70.5h-433v1616zM201 1528v-1440h319q124 0 230 61t168.5 165.5t62.5 226.5q0 143 -70.5 244.5t-179.5 152.5
t-215 51q-37 0 -67 -6v94q60 3 109 35.5t76.5 85t27.5 113.5q-1 60 -34 110t-87.5 78.5t-118.5 28.5h-221z" />
    <glyph glyph-name="N" unicode="N" horiz-adv-x="1401" 
d="M10 1683h146l1042 -600v533h96v-1616h-96v989l-983 576v-1565h-96v1618z" />
    <glyph glyph-name="M" unicode="M" horiz-adv-x="1694" 
d="M45 1673h135l670 -590l598 533h143v-1616h-94v1542l-655 -567l-639 557v-1532h-94v1612z" />
    <glyph glyph-name="less" unicode="&#x3c;" horiz-adv-x="1352" 
d="M1239 1163v-153l-942 -422l944 -445v-147l-1132 530v123z" />
    <glyph glyph-name="greater" unicode="&#x3e;" horiz-adv-x="1333" 
d="M1249 653v-121l-1130 -530v148l942 442l-942 422v153z" />
    <glyph glyph-name="question" unicode="?" horiz-adv-x="852" 
d="M369 989q-76 16 -134 62.5t-89 112.5t-31 143q2 68 27 123t71 100t105.5 68.5t123.5 23.5q84 0 156.5 -39t117 -106.5t50.5 -151.5q0 -48 -6 -74t-25 -98l-243 -960h-99l252 1003q8 28 12.5 44t7.5 32.5t3 34.5q-6 60 -38 113t-82.5 82.5t-109.5 29.5q-93 -2 -158 -68
t-65 -157q0 -85 45.5 -143t124.5 -79zM365 94h102l-25 -98h-102z" />
  </font>
</defs>
</svg>
